<?xml version="1.0" encoding="UTF-8"?>
<!-- Generator: visioncortex VTracer 0.6.4 -->
<svg version="1.1" xmlns="http://www.w3.org/2000/svg" width="1024" height="1024">
<path d="M0,0 L1024,0 L1024,1024 L0,1024 Z M480,171 L454,174 L425,180 L398,188 L371,199 L347,211 L329,222 L318,230 L322,234 L348,249 L373,264 L399,279 L421,292 L443,305 L446,308 L460,337 L471,361 L487,395 L495,413 L500,408 L512,395 L521,384 L530,374 L539,363 L549,352 L558,341 L568,330 L577,319 L582,314 L636,299 L712,278 L706,287 L694,301 L682,315 L682,318 L699,334 L712,347 L719,355 L733,374 L747,393 L760,412 L772,429 L778,438 L777,443 L760,472 L744,471 L733,470 L724,452 L688,436 L659,423 L643,416 L641,416 L639,390 L634,395 L620,413 L607,430 L609,435 L621,455 L638,483 L654,510 L659,518 L658,524 L643,559 L643,560 L669,558 L712,555 L737,554 L739,563 L750,598 L757,619 L756,624 L744,637 L691,690 L654,703 L638,708 L649,686 L660,663 L661,661 L669,660 L693,659 L702,646 L715,627 L724,614 L723,608 L715,587 L714,585 L704,586 L674,594 L637,604 L590,615 L544,623 L488,630 L502,589 L505,581 L504,578 L493,591 L481,604 L474,612 L465,622 L454,634 L442,648 L435,655 L432,659 L399,671 L348,691 L334,697 L322,711 L313,722 L302,735 L293,746 L280,761 L268,775 L259,786 L249,797 L243,804 L250,784 L265,748 L278,717 L297,672 L298,668 L304,666 L324,657 L331,653 L344,618 L362,570 L367,557 L366,554 L345,559 L335,568 L322,578 L311,587 L297,598 L284,608 L263,621 L246,631 L246,630 L256,617 L270,599 L283,582 L296,566 L307,553 L316,542 L324,533 L396,528 L422,523 L469,512 L522,499 L520,493 L504,460 L482,415 L467,386 L453,359 L439,332 L429,314 L407,302 L390,292 L365,278 L348,268 L323,254 L301,242 L286,234 L270,226 L245,213 L226,203 L197,188 L180,179 L178,179 L181,188 L194,217 L207,246 L212,251 L236,264 L252,273 L279,288 L297,298 L322,312 L351,328 L369,338 L385,347 L394,353 L410,374 L424,393 L439,413 L451,430 L451,434 L371,354 L333,336 L307,324 L273,308 L243,294 L213,280 L200,274 L198,275 L221,322 L230,339 L246,347 L295,371 L318,382 L341,393 L342,396 L340,397 L339,399 L335,400 L335,402 L327,400 L292,385 L262,372 L246,364 L224,351 L216,346 L213,347 L202,372 L193,397 L186,422 L180,453 L178,470 L177,488 L177,508 L179,536 L184,566 L190,590 L198,614 L209,639 L220,660 L230,676 L233,680 L232,686 L220,716 L198,772 L185,804 L172,838 L157,874 L157,882 L160,885 L168,885 L191,875 L228,858 L263,842 L294,828 L327,813 L353,801 L362,797 L368,799 L385,807 L409,816 L434,823 L460,828 L492,831 L524,831 L550,829 L580,824 L610,816 L637,806 L655,798 L677,786 L695,775 L711,763 L721,755 L735,743 L750,729 L764,714 L773,703 L785,687 L797,669 L808,650 L819,627 L828,603 L834,584 L840,555 L843,534 L844,519 L844,474 L841,448 L836,422 L828,394 L821,375 L812,355 L802,336 L789,316 L779,302 L768,289 L759,279 L748,267 L735,255 L722,244 L706,232 L691,222 L676,213 L653,201 L626,190 L604,183 L574,176 L546,172 L536,171 Z M678,353 L684,364 L691,374 L699,377 L716,382 L718,381 L708,365 L704,362 L680,353 Z " fill="#FCFCFC" transform="translate(0,0)"/>
<path d="M0,0 L56,0 L88,4 L112,9 L134,15 L154,22 L179,33 L200,44 L222,58 L239,71 L250,80 L262,91 L272,100 L286,115 L295,126 L305,139 L315,154 L324,169 L336,192 L346,217 L354,243 L360,271 L363,293 L364,303 L364,348 L362,371 L357,400 L351,423 L343,446 L333,469 L323,488 L312,506 L299,524 L288,538 L276,551 L267,561 L251,576 L240,585 L226,596 L207,609 L188,620 L173,628 L144,640 L120,648 L90,655 L60,659 L44,660 L12,660 L-20,657 L-46,652 L-71,645 L-90,638 L-110,629 L-116,626 L-125,629 L-148,640 L-181,655 L-217,671 L-258,690 L-293,706 L-312,714 L-320,714 L-323,711 L-323,703 L-308,667 L-291,623 L-280,596 L-264,555 L-247,512 L-248,508 L-258,492 L-267,476 L-278,453 L-287,429 L-294,404 L-299,379 L-302,354 L-303,337 L-303,317 L-301,291 L-297,265 L-291,240 L-284,217 L-273,189 L-266,175 L-261,177 L-244,187 L-227,197 L-200,209 L-158,227 L-137,236 L-121,247 L-107,257 L-93,267 L-74,281 L-56,294 L-50,298 L-56,291 L-82,265 L-90,258 L-101,248 L-112,239 L-123,230 L-139,222 L-164,210 L-211,187 L-234,176 L-250,168 L-260,149 L-273,123 L-282,103 L-276,105 L-242,121 L-209,136 L-182,149 L-154,162 L-122,177 L-108,184 L-29,263 L-29,259 L-39,245 L-53,226 L-69,205 L-83,186 L-88,180 L-108,169 L-131,156 L-155,143 L-178,130 L-205,115 L-232,100 L-259,85 L-271,78 L-279,62 L-292,33 L-302,10 L-302,8 L-296,10 L-273,22 L-240,39 L-217,51 L-197,62 L-181,70 L-158,82 L-134,96 L-116,106 L-92,120 L-74,130 L-53,142 L-49,146 L-31,181 L-21,200 L-7,227 L11,262 L30,301 L42,326 L42,328 L-24,344 L-58,352 L-84,357 L-156,362 L-167,374 L-176,385 L-185,396 L-198,412 L-208,425 L-218,438 L-232,456 L-236,461 L-222,453 L-199,439 L-183,427 L-167,414 L-151,401 L-142,394 L-135,388 L-113,383 L-114,388 L-125,418 L-140,458 L-149,482 L-165,490 L-180,497 L-182,497 L-185,506 L-197,534 L-208,560 L-223,596 L-234,624 L-237,633 L-225,620 L-216,609 L-203,594 L-191,580 L-182,569 L-170,555 L-161,544 L-149,530 L-144,525 L-104,509 L-65,494 L-48,488 L-37,476 L-28,466 L-21,458 L-9,445 L0,435 L9,424 L17,416 L24,407 L25,410 L21,421 L8,459 L48,454 L75,450 L110,444 L157,433 L194,423 L224,415 L234,414 L242,434 L244,439 L243,444 L235,456 L224,472 L213,488 L189,489 L181,490 L171,511 L163,527 L158,537 L194,525 L211,519 L272,458 L277,452 L276,445 L257,386 L257,383 L216,385 L176,388 L163,389 L173,365 L179,351 L178,346 L166,325 L149,297 L132,269 L127,261 L129,257 L138,245 L154,224 L159,219 L161,245 L167,247 L190,257 L217,269 L244,281 L253,299 L274,301 L280,301 L294,277 L298,270 L297,265 L285,248 L273,231 L261,214 L247,195 L238,183 L223,167 L210,154 L202,147 L202,144 L211,134 L220,123 L229,112 L232,107 L152,129 L102,143 L89,157 L80,168 L70,179 L61,190 L51,201 L42,212 L33,222 L24,233 L16,242 L14,240 L3,216 L-13,182 L-25,156 L-35,135 L-51,126 L-73,113 L-102,96 L-131,79 L-153,66 L-162,60 L-157,55 L-138,43 L-111,29 L-90,20 L-63,11 L-37,5 L-11,1 Z M-194,255 L-190,258 L-175,267 L-149,282 L-130,293 L-101,308 L-64,323 L-55,327 L-53,327 L-54,323 L-86,302 L-101,292 L-124,277 L-134,271 L-169,261 L-191,255 Z M-26,509 L-49,521 L-68,531 L-83,539 L-83,542 L-76,549 L-68,556 L-58,565 L-48,574 L-40,581 L-26,593 L-12,605 L2,617 L5,620 L22,620 L20,616 L8,602 L-1,591 L-12,578 L-23,564 L-36,549 L-44,539 L-42,534 L-32,521 L-25,511 Z " fill="#095639" transform="translate(480,171)"/>
<path d="M0,0 L0,3 L-12,20 L-18,28 L-16,32 L-7,43 L4,56 L12,66 L23,79 L32,90 L43,103 L48,109 L48,111 L31,111 L17,98 L6,89 L-9,76 L-20,66 L-31,57 L-39,49 L-47,42 L-57,33 L-57,30 L-30,16 L-3,2 Z " fill="#F6FAF9" transform="translate(454,680)"/>
<path d="M0,0 L10,2 L50,13 L62,17 L81,29 L96,39 L111,49 L141,69 L141,72 L132,69 L96,54 L75,44 L53,32 L29,18 L7,5 L0,1 Z " fill="#F3F9F6" transform="translate(286,426)"/>
<path d="M0,0 L9,3 L19,9 L34,22 L44,31 L52,38 L64,49 L89,74 L88,76 L71,64 L52,50 L34,37 L17,25 L4,16 L-8,10 L-11,8 L-7,8 L-6,5 L-2,4 L-2,2 L0,2 Z " fill="#F1F9F6" transform="translate(342,394)"/>
<path d="M0,0 L10,3 L28,10 L32,15 L40,29 L24,25 L14,22 L10,17 L0,1 Z " fill="#0D4D34" transform="translate(678,353)"/>
</svg>
